<svg width="1200" height="1200" xmlns="http://www.w3.org/2000/svg" xmlns:xlink="http://www.w3.org/1999/xlink" version="1.1"><g transform="scale(22.50068666646321) translate(2.6651351054509496, 2.6654866536458335)">            <linearGradient id="SvgjsLinearGradient1070"><stop id="SvgjsStop1071" stop-color="#905e26" offset="0"/><stop id="SvgjsStop1072" stop-color="#f5ec9b" offset="0.5"/><stop id="SvgjsStop1073" stop-color="#905e26" offset="1"/></linearGradient><linearGradient id="SvgjsLinearGradient1074"><stop id="SvgjsStop1075" stop-color="#905e26" offset="0"/><stop id="SvgjsStop1076" stop-color="#f5ec9b" offset="0.5"/><stop id="SvgjsStop1077" stop-color="#905e26" offset="1"/></linearGradient><linearGradient id="SvgjsLinearGradient1078"><stop id="SvgjsStop1079" stop-color="#905e26" offset="0"/><stop id="SvgjsStop1080" stop-color="#f5ec9b" offset="0.5"/><stop id="SvgjsStop1081" stop-color="#905e26" offset="1"/></linearGradient>            <g fill="url(#SvgjsLinearGradient1074)"><linearGradient id="SvgjsLinearGradient1070"><stop id="SvgjsStop1071" stop-color="#905e26" offset="0"/><stop id="SvgjsStop1072" stop-color="#f5ec9b" offset="0.5"/><stop id="SvgjsStop1073" stop-color="#905e26" offset="1"/></linearGradient><linearGradient id="SvgjsLinearGradient1074"><stop id="SvgjsStop1075" stop-color="#905e26" offset="0"/><stop id="SvgjsStop1076" stop-color="#f5ec9b" offset="0.5"/><stop id="SvgjsStop1077" stop-color="#905e26" offset="1"/></linearGradient><linearGradient id="SvgjsLinearGradient1078"><stop id="SvgjsStop1079" stop-color="#905e26" offset="0"/><stop id="SvgjsStop1080" stop-color="#f5ec9b" offset="0.5"/><stop id="SvgjsStop1081" stop-color="#905e26" offset="1"/></linearGradient><g xmlns="http://www.w3.org/2000/svg" transform="translate(0,-1004.3622)"><path style="color: ; font-style: normal; font-variant: normal; font-weight: normal; font-stretch: normal; font-size: medium; line-height: normal; font-family: sans-serif; text-indent: 0; text-align: start; text-decoration: none; text-decoration-line: none; text-decoration-style: solid; text-decoration-color: ; letter-spacing: normal; word-spacing: normal; text-transform: none; direction: ltr; block-progression: tb; writing-mode: lr-tb; baseline-shift: baseline; text-anchor: start; white-space: normal; clip-rule: nonzero; display: inline; overflow: visible; visibility: visible; opacity: 1; isolation: auto; mix-blend-mode: normal; color-interpolation: sRGB; color-interpolation-filters: linearRGB; solid-color: ; solid-opacity: 1; fill-opacity: 1; fill-rule: evenodd; stroke-width: 1.06667137; stroke-linecap: round; stroke-linejoin: round; stroke-miterlimit: 4; stroke-dasharray: none; stroke-dashoffset: 0; stroke-opacity: 1; color-rendering: auto; image-rendering: auto; shape-rendering: auto; text-rendering: auto; enable-background: accumulate" d="m 11.064453,1004.3633 a 0.53338902,0.53338902 0 0 0 -0.480469,0.6875 c 0,0 0.207644,0.6867 0.423828,1.5508 0.216185,0.864 0.434468,1.919 0.458985,2.5488 0.04547,1.1735 -0.628078,2.5062 -0.542969,4.0605 0.04316,0.791 0.01053,1.757 0.142578,2.6934 0.08942,0.6341 0.331933,1.2366 0.685547,1.7793 -0.695062,-0.096 -1.405851,-0.1974 -2.033203,-0.1973 l -0.00391,0 c -1.0745775,-0 -2.1239973,0.1287 -3.1445313,0.2598 -1.1029004,0.1415 -2.0324833,0.559 -2.8496094,0.5098 -0.3452591,-0.021 -1.0147143,-0.2089 -1.5527343,-0.3985 -0.5380201,-0.1896 -0.9628907,-0.3711 -0.9628907,-0.3711 a 0.53338902,0.53338902 0 0 0 -0.63281248,0.8145 c 0,0 1.17376988,1.5291 1.69335938,2.2871 0.5286887,0.7713 0.9245385,1.7553 1.6582031,2.6113 0.920827,1.0744 2.0317966,1.9359 3.1269531,2.7344 0.5319337,0.3879 1.1180895,0.8715 1.8828126,1.1211 0.078383,0.026 0.144439,9e-4 0.2226562,0.022 -0.3561253,0.2423 -0.7354241,0.4724 -0.9589844,0.7968 -0.3274936,0.4753 -0.5848625,0.9668 -0.8515625,1.3125 -0.9081965,1.1774 -1.742486,2.4103 -2.5117187,3.6778 -0.6995239,1.1527 -1.153049,2.3656 -1.8066406,3.375 -0.5618933,0.867 -2.0156251,2.6074 -2.015625,2.6074 a 0.53338902,0.53338902 0 0 0 0.3417968,0.8711 c 0,0 2.470678,0.3174 3.8183594,0.3066 1.2901461,-0.01 2.6712084,0.01 4.015625,-0.3847 1.281408,-0.3764 2.362236,-1.1066 3.400391,-1.752 -0.416702,1.0044 -0.643576,2.0571 -0.865235,2.9942 -0.258103,1.0908 -0.408538,2.1763 -0.609375,3.2265 -0.258032,1.3488 -0.785156,4.0508 -0.785156,4.0508 a 0.53338902,0.53338902 0 0 0 0.613281,0.6289 c 0,0 2.183112,-0.366 3.341797,-0.7461 1.272015,-0.4172 2.493433,-0.9735 3.65625,-1.6113 1.133259,-0.6216 2.404777,-1.239 3.394531,-2.2774 0.736178,-0.7725 1.156159,-1.7133 1.580078,-2.6171 0.06323,1.0544 0.14462,2.1292 0.566407,3.123 0.446602,1.0524 1.126001,2.0494 2.021484,2.8008 1.107636,0.9294 2.474494,1.3238 3.65625,1.7832 1.270411,0.4938 2.557182,0.6148 3.605469,1.0781 1.061152,0.4688 3.238281,1.9473 3.238281,1.9473 a 0.53338902,0.53338902 0 0 0 0.826172,-0.5371 c 0,0 -0.513217,-2.7423 -0.787109,-4.1192 -0.340338,-1.7106 -0.457559,-3.5627 -1.109375,-5.3398 -0.42177,-1.1497 -1.083927,-2.1694 -1.734375,-3.1836 0.06677,0.038 0.137818,0.1168 0.203125,0.1504 1.261856,0.6495 2.695017,1.1236 4.164062,1.1484 1.18972,0.021 2.241153,-0.4483 3.193359,-0.75 1.379409,-0.4369 2.575226,-1.1412 3.800782,-1.5097 0.760314,-0.2288 2.533203,-0.5293 2.533203,-0.5293 a 0.53338902,0.53338902 0 0 0 0.306641,-0.8868 c 0,0 -1.922784,-2.1038 -2.90625,-3.1504 -0.875598,-0.9317 -1.702824,-1.9973 -2.767579,-2.8867 -1.172305,-0.9792 -2.452452,-1.8858 -3.863281,-2.5527 -0.384573,-0.1818 -0.615367,-0.1906 -1.107422,-0.3418 0.648838,-0.1304 1.333052,-0.2473 1.851563,-0.5176 1.054894,-0.55 1.888042,-1.428 2.544922,-2.3379 0.914832,-1.2674 1.233326,-2.7478 1.802734,-3.955 0.535731,-1.1357 0.995072,-2.2701 1.605469,-3.2774 0.586251,-0.9674 2.136718,-2.9062 2.136718,-2.9062 a 0.53338902,0.53338902 0 0 0 -0.458984,-0.8653 c 0,0 -2.662849,0.2208 -3.978516,0.3008 -1.736822,0.105 -3.577028,-0.07 -5.439453,0.25 -1.414774,0.2433 -3.048709,0.4231 -4.386718,1.3574 -0.221683,0.1548 -0.362846,0.4265 -0.556641,0.6407 0.0018,-0.6552 -0.02293,-1.3273 0.0039,-1.8692 a 0.53338902,0.53338902 0 0 0 0,-0 c 0.08145,-1.6557 0.09196,-3.287 0.46875,-4.795 0.295334,-1.182 1.53125,-3.7011 1.53125,-3.7011 a 0.53338902,0.53338902 0 0 0 -0.65039,-0.7422 c 0,0 -1.210573,0.4181 -2.664063,1.0332 -1.45349,0.6151 -3.144765,1.4088 -4.207031,2.2597 -1.467703,1.1757 -2.676503,2.7241 -3.47461,4.4239 -0.312373,0.6653 -0.47493,1.5752 -0.644531,2.4316 -0.227612,-0.9749 -0.468885,-2.0237 -0.884765,-2.7676 -0.994779,-1.7793 -2.61374,-3.0422 -4.050782,-4.2597 -1.889724,-1.6012 -5.933593,-4.041 -5.933593,-4.041 a 0.53338902,0.53338902 0 0 0 -0.304688,-0.076 z m 0.925781,1.7871 c 1.106564,0.6881 3.252438,1.9832 4.623047,3.1445 1.456249,1.2339 2.952631,2.4338 3.808594,3.9649 0.382224,0.6837 0.745209,2 0.978516,3.1093 0.233306,1.1094 0.357421,2.0215 0.357421,2.0215 a 0.53338902,0.53338902 0 0 0 1.058594,-0.018 c 0,0 0.08555,-0.8504 0.261719,-1.8925 0.176166,-1.0422 0.458934,-2.2855 0.771484,-2.9512 0.727439,-1.5493 1.842464,-2.9769 3.175782,-4.0449 0.872685,-0.6991 2.536941,-1.5093 3.955078,-2.1094 0.79709,-0.3373 0.980035,-0.3887 1.458984,-0.5664 -0.388911,0.8111 -0.868101,1.7003 -1.126953,2.7363 -0.418744,1.6759 -0.418228,3.3796 -0.498047,5.002 -0.04752,0.9598 0.126857,1.8152 0.0059,2.5371 -0.07087,0.4223 -0.552734,1.5879 -0.552734,1.5879 a 0.53338902,0.53338902 0 0 0 0.957031,0.4707 c 0,0 0.259951,-0.4797 0.628907,-1.0352 0.368955,-0.5554 0.875472,-1.1851 1.189453,-1.4043 1.045746,-0.7302 2.506889,-0.9323 3.957031,-1.1816 1.676563,-0.2881 3.474778,-0.1227 5.322266,-0.2344 0.95677,-0.058 1.985253,-0.1472 2.841796,-0.2168 -0.499803,0.6364 -1.049256,1.2955 -1.517578,2.0684 -0.669975,1.1055 -1.139953,2.2764 -1.658203,3.375 -0.639108,1.355 -0.959923,2.7575 -1.703125,3.7871 -0.595524,0.8249 -1.329685,1.5765 -2.171875,2.0156 -0.461533,0.2406 -1.415573,0.4678 -2.214843,0.5996 -0.799271,0.1318 -1.455079,0.1895 -1.455079,0.1895 a 0.53338902,0.53338902 0 0 0 -0.07422,1.0507 c 0,0 2.183196,0.5261 3.037109,0.9297 1.297919,0.6136 2.507217,1.4664 3.634766,2.4082 0.948281,0.7921 1.752984,1.817 2.673828,2.7969 0.757354,0.806 1.710129,1.849 2.261718,2.4512 -0.587019,0.1049 -1.119408,0.1812 -1.724609,0.3633 -1.390512,0.4182 -2.591383,1.1256 -3.816406,1.5136 -1.023472,0.3243 -1.96925,0.7165 -2.851563,0.7012 a 0.53338902,0.53338902 0 0 0 -0.002,0 c -1.249093,-0.021 -2.537982,-0.4346 -3.693359,-1.0293 -0.6353,-0.327 -1.59744,-1.0924 -2.361328,-1.7637 -0.755853,-0.6642 -1.321884,-1.2224 -1.333985,-1.2343 -6.4e-5,-10e-5 -0.0058,-0.01 -0.0059,-0.01 -3.3e-5,-10e-5 -0.0078,-0.01 -0.0078,-0.01 a 0.53338902,0.53338902 0 0 0 -0.75586,0.75 c 0,0 0.0058,0.01 0.0059,0.01 0,0 0.0058,0 0.0059,0 0.01579,0.016 1.740855,1.8078 2.380859,2.7266 0.851413,1.2221 1.614205,2.5106 2.113282,3.8711 0.581603,1.5857 0.707764,3.379 1.066406,5.1816 0.193765,0.9741 0.395157,2.061 0.560547,2.9395 -0.707213,-0.4708 -1.458748,-1.0153 -2.361329,-1.4141 -1.261161,-0.5573 -2.567259,-0.6767 -3.65039,-1.0977 -1.237724,-0.4811 -2.476112,-0.8659 -3.357422,-1.6054 -0.741321,-0.622 -1.338228,-1.4854 -1.726562,-2.4004 -0.449912,-1.0601 -0.619538,-2.281 -0.621094,-3.4805 l 0,-0 c 2.69e-4,-0.5362 0.156251,-1.4618 0.318359,-2.2188 0.162248,-0.7577 0.324219,-1.3594 0.324219,-1.3594 1e-6,0 0,-0 0,-0 a 0.53338902,0.53338902 0 0 0 -1.029297,-0.2734 c 0,0 1e-6,0 0,0 l -0.002,0 c 0,0 -0.68628,2.5586 -1.175781,3.6348 -0.485031,1.0664 -0.982885,2.1109 -1.712891,2.877 -0.815466,0.8554 -1.974296,1.4397 -3.134766,2.0761 -1.115805,0.612 -2.28124,1.1405 -3.478515,1.5332 -0.728762,0.2391 -1.759009,0.4145 -2.419922,0.5372 0.14202,-0.7282 0.424785,-2.1685 0.632812,-3.2559 0.20765,-1.0858 0.356955,-2.158 0.59961,-3.1836 0.280135,-1.1843 0.426379,-2.3416 0.917969,-3.2559 0.386216,-0.7184 1.031085,-1.3495 1.707031,-1.9804 0.566379,-0.5286 2.080078,-1.543 2.080078,-1.543 3.51e-4,-3e-4 0.02344,-0.018 0.02344,-0.018 a 0.53338902,0.53338902 0 0 0 -0.611328,-0.873 c 0,0 -0.02311,0.017 -0.02344,0.018 l 0,-0 c 0,0 -1.390392,1.028 -2.085938,1.5371 -0.904956,0.6624 -1.738898,1.3634 -2.626953,1.9121 -1.092764,0.6753 -2.141699,1.3681 -3.2558592,1.6953 -1.1414092,0.3354 -2.421844,0.3333 -3.7226563,0.3418 -0.8581668,0.01 -1.9478708,-0.1336 -2.7226563,-0.2207 0.4608683,-0.5592 1.0174693,-1.202 1.4824219,-1.9199 0.7384464,-1.1404 1.1930353,-2.3635 1.8222657,-3.4004 0.7508014,-1.2371 1.5640084,-2.4356 2.4453124,-3.5781 0.3529703,-0.4576 0.609468,-0.9627 0.8828126,-1.3594 0.2733445,-0.3966 0.5349282,-0.6583 0.8496093,-0.7578 0.7411239,-0.2343 2.0743119,-0.3403 3.1816409,-0.3652 0.34013,-0.01 0.589929,-0 0.871093,0 0.376977,7e-4 1.093827,0.018 1.113282,0.018 3.75e-4,0 0.02129,0 0.02148,0 2.15e-4,0 0.02344,0 0.02344,0 l -0.0039,-0 a 0.53338902,0.53338902 0 0 0 -0.002,-1.0645 c 0,0 -0.132734,-0 -0.140625,-0 -5.12e-4,-10e-5 0.0025,-0 0.002,-0 -0.10541,-0 -0.25794,-0.01 -0.445312,-0.012 -0.152896,-0 -0.403237,10e-4 -0.597656,0 -0.742868,-0 -1.42058,0.01 -2.09961,-0.031 a 0.53338902,0.53338902 0 0 0 -0.002,0 c -0.962561,-0.05 -1.8565665,0.02 -2.5820311,-0.2168 -0.5180994,-0.169 -1.0275538,-0.5616 -1.5859375,-0.9687 -1.0758837,-0.7845 -2.1155139,-1.6025 -2.9433594,-2.5684 -0.5838618,-0.6812 -0.9739137,-1.6209 -1.5898438,-2.5195 -0.2334111,-0.3405 -0.4008697,-0.5463 -0.7148437,-0.9668 0.4139224,0.127 0.833579,0.2789 1.2265625,0.3027 1.1750865,0.071 2.1719685,-0.4031 3.0488281,-0.5156 1.0204341,-0.1311 2.0248119,-0.2564 3.0078125,-0.252 a 0.53338902,0.53338902 0 0 0 0.00195,0 c 0.9488992,0 1.8566332,-0.033 2.6035152,0.2266 0.663485,0.2306 1.633881,0.8705 2.498047,1.4648 0.906803,0.656 2.191406,1.6055 2.191406,1.6055 a 0.53338902,0.53338902 0 0 0 0.84375,-0.4355 0.53338902,0.53338902 0 0 0 -0.191406,-0.4102 c 0,0 -0.03078,-0.023 -0.03125,-0.023 -0.02629,-0.022 -0.752139,-0.6269 -1.730468,-1.3321 -0.137924,-0.099 -0.302333,-0.1585 -0.447266,-0.2597 -1.03037,-0.7456 -1.749845,-1.2506 -2.478516,-1.8125 -0.49863,-0.3845 -0.735849,-1.0136 -0.849609,-1.8203 -0.11376,-0.8068 -0.0878,-1.7428 -0.134766,-2.6036 -0.06391,-1.1672 0.60499,-2.4928 0.544922,-4.0429 a 0.53338902,0.53338902 0 0 0 0,-0 c -0.03162,-0.8123 -0.267005,-1.8734 -0.490234,-2.7656 -0.02669,-0.1067 -0.0266,-0.091 -0.05274,-0.1914 z" fill="url(#SvgjsLinearGradient1074)" stroke="none"/><path style="color: ; font-style: normal; font-variant: normal; font-weight: normal; font-stretch: normal; font-size: medium; line-height: normal; font-family: sans-serif; text-indent: 0; text-align: start; text-decoration: none; text-decoration-line: none; text-decoration-style: solid; text-decoration-color: ; letter-spacing: normal; word-spacing: normal; text-transform: none; direction: ltr; block-progression: tb; writing-mode: lr-tb; baseline-shift: baseline; text-anchor: start; white-space: normal; clip-rule: nonzero; display: inline; overflow: visible; visibility: visible; opacity: 1; isolation: auto; mix-blend-mode: normal; color-interpolation: sRGB; color-interpolation-filters: linearRGB; solid-color: ; solid-opacity: 1; fill-opacity: 1; fill-rule: evenodd; stroke-width: 1.06667137; stroke-linecap: round; stroke-linejoin: round; stroke-miterlimit: 4; stroke-dasharray: none; stroke-dashoffset: 0; stroke-opacity: 1; color-rendering: auto; image-rendering: auto; shape-rendering: auto; text-rendering: auto; enable-background: accumulate" d="m 25.693359,1017.2676 c -0.937741,0.045 -1.867672,0.1888 -2.763671,0.4043 -1.617855,0.3889 -3.218067,1.0776 -4.560547,2.1054 -1.136705,0.8703 -2.125485,2.0066 -2.763672,3.3106 -0.688912,1.4075 -1.015668,3.0065 -0.994141,4.5605 a 0.53338902,0.53338902 0 0 0 0.05664,0.2325 c 0.06847,1.3907 0.490013,2.7187 0.96289,3.9316 0.427063,1.0955 0.86246,2.371 1.835938,3.3125 1.238186,1.1979 2.892225,1.8558 4.46875,2.2695 1.003286,0.2633 2.041727,0.2514 3.015625,0.1426 1.69274,-0.189 3.461532,-0.5419 5.02539,-1.3848 1.435882,-0.7738 2.757288,-1.8792 3.691407,-3.248 0.74887,-1.0973 1.11975,-2.3944 1.326172,-3.6348 0.148214,-0.8912 0.03101,-1.7487 -0.03711,-2.5293 -0.11669,-1.3345 -0.108758,-2.8207 -0.679687,-4.2187 -0.557878,-1.3661 -1.424585,-2.6731 -2.591797,-3.6309 -0.9184,-0.7536 -2.055427,-1.2183 -3.1875,-1.4375 -0.92276,-0.1785 -1.866946,-0.231 -2.804688,-0.1855 z m 0.05078,1.0664 c 0.863241,-0.042 1.725291,0.01 2.552734,0.166 0.984463,0.1906 1.964479,0.6007 2.712891,1.2148 0.997294,0.8184 1.780249,1.9842 2.28125,3.211 0.465701,1.1403 0.481362,2.5092 0.603515,3.9062 0.0707,0.8103 0.160575,1.578 0.04687,2.2618 -0.191858,1.1528 -0.535829,2.3027 -1.154297,3.2089 -0.819451,1.2008 -2.014347,2.2085 -3.316406,2.9102 -1.376181,0.7417 -3.012486,1.084 -4.638672,1.2656 -0.897258,0.1002 -1.808893,0.1 -2.626953,-0.1152 -1.481101,-0.3887 -2.961986,-1.0054 -3.996094,-2.0059 -0.732119,-0.7081 -1.149162,-1.8162 -1.583984,-2.9316 -0.4913,-1.2602 -0.929813,-2.5423 -0.947266,-3.791 -0.01929,-1.3928 0.280151,-2.8389 0.886719,-4.0782 0.553997,-1.1319 1.436754,-2.1554 2.453125,-2.9336 1.19928,-0.9181 2.665881,-1.5548 4.160156,-1.914 0.837261,-0.2014 1.703165,-0.3331 2.566407,-0.375 z" fill="url(#SvgjsLinearGradient1074)" stroke="none"/><path style="color: ; font-style: normal; font-variant: normal; font-weight: normal; font-stretch: normal; font-size: medium; line-height: normal; font-family: sans-serif; text-indent: 0; text-align: start; text-decoration: none; text-decoration-line: none; text-decoration-style: solid; text-decoration-color: ; letter-spacing: normal; word-spacing: normal; text-transform: none; direction: ltr; block-progression: tb; writing-mode: lr-tb; baseline-shift: baseline; text-anchor: start; white-space: normal; clip-rule: nonzero; display: inline; overflow: visible; visibility: visible; opacity: 1; isolation: auto; mix-blend-mode: normal; color-interpolation: sRGB; color-interpolation-filters: linearRGB; solid-color: ; solid-opacity: 1; fill-opacity: 1; fill-rule: evenodd; stroke-width: 1.06667137; stroke-linecap: round; stroke-linejoin: round; stroke-miterlimit: 4; stroke-dasharray: none; stroke-dashoffset: 0; stroke-opacity: 1; color-rendering: auto; image-rendering: auto; shape-rendering: auto; text-rendering: auto; enable-background: accumulate" d="m 16.765625,1021.5918 a 0.53338902,0.53338902 0 0 0 -0.480469,0.748 l 3.019532,7.129 2.898437,7.4921 a 0.53390012,0.53390012 0 1 0 0.996094,-0.3847 l -2.902344,-7.5 a 0.53338902,0.53338902 0 0 0 -0.0059,-0.016 l -3.023438,-7.1367 a 0.53338902,0.53338902 0 0 0 -0.501953,-0.332 z" fill="url(#SvgjsLinearGradient1074)" stroke="none"/><path style="color: ; font-style: normal; font-variant: normal; font-weight: normal; font-stretch: normal; font-size: medium; line-height: normal; font-family: sans-serif; text-indent: 0; text-align: start; text-decoration: none; text-decoration-line: none; text-decoration-style: solid; text-decoration-color: ; letter-spacing: normal; word-spacing: normal; text-transform: none; direction: ltr; block-progression: tb; writing-mode: lr-tb; baseline-shift: baseline; text-anchor: start; white-space: normal; clip-rule: nonzero; display: inline; overflow: visible; visibility: visible; opacity: 1; isolation: auto; mix-blend-mode: normal; color-interpolation: sRGB; color-interpolation-filters: linearRGB; solid-color: ; solid-opacity: 1; fill-opacity: 1; fill-rule: evenodd; stroke-width: 1.06667137; stroke-linecap: round; stroke-linejoin: round; stroke-miterlimit: 4; stroke-dasharray: none; stroke-dashoffset: 0; stroke-opacity: 1; color-rendering: auto; image-rendering: auto; shape-rendering: auto; text-rendering: auto; enable-background: accumulate" d="m 19.507812,1019.5547 a 0.53338902,0.53338902 0 0 0 -0.496093,0.7363 l 3.193359,8.0254 3.324219,8.5254 a 0.53338902,0.53338902 0 1 0 0.994141,-0.3867 l -3.326172,-8.5293 a 0.53338902,0.53338902 0 0 0 0,-0 l -3.19336,-8.0273 a 0.53338902,0.53338902 0 0 0 -0.496094,-0.3418 z" fill="url(#SvgjsLinearGradient1074)" stroke="none"/><path style="color: ; font-style: normal; font-variant: normal; font-weight: normal; font-stretch: normal; font-size: medium; line-height: normal; font-family: sans-serif; text-indent: 0; text-align: start; text-decoration: none; text-decoration-line: none; text-decoration-style: solid; text-decoration-color: ; letter-spacing: normal; word-spacing: normal; text-transform: none; direction: ltr; block-progression: tb; writing-mode: lr-tb; baseline-shift: baseline; text-anchor: start; white-space: normal; clip-rule: nonzero; display: inline; overflow: visible; visibility: visible; opacity: 1; isolation: auto; mix-blend-mode: normal; color-interpolation: sRGB; color-interpolation-filters: linearRGB; solid-color: ; solid-opacity: 1; fill-opacity: 1; fill-rule: evenodd; stroke-width: 1.06667137; stroke-linecap: round; stroke-linejoin: round; stroke-miterlimit: 4; stroke-dasharray: none; stroke-dashoffset: 0; stroke-opacity: 1; color-rendering: auto; image-rendering: auto; shape-rendering: auto; text-rendering: auto; enable-background: accumulate" d="m 22.607422,1017.8438 a 0.53338902,0.53338902 0 0 0 -0.449219,0.7656 l 3.4375,7.3008 3.802735,9.9003 a 0.53338902,0.53338902 0 1 0 0.996093,-0.3808 l -3.810547,-9.9199 a 0.53338902,0.53338902 0 0 0 -0.01367,-0.035 l -3.447265,-7.3184 a 0.53338902,0.53338902 0 0 0 -0.515625,-0.3124 z" fill="url(#SvgjsLinearGradient1074)" stroke="none"/><path style="color: ; font-style: normal; font-variant: normal; font-weight: normal; font-stretch: normal; font-size: medium; line-height: normal; font-family: sans-serif; text-indent: 0; text-align: start; text-decoration: none; text-decoration-line: none; text-decoration-style: solid; text-decoration-color: ; letter-spacing: normal; word-spacing: normal; text-transform: none; direction: ltr; block-progression: tb; writing-mode: lr-tb; baseline-shift: baseline; text-anchor: start; white-space: normal; clip-rule: nonzero; display: inline; overflow: visible; visibility: visible; opacity: 1; isolation: auto; mix-blend-mode: normal; color-interpolation: sRGB; color-interpolation-filters: linearRGB; solid-color: ; solid-opacity: 1; fill-opacity: 1; fill-rule: evenodd; stroke-width: 1.06667137; stroke-linecap: round; stroke-linejoin: round; stroke-miterlimit: 4; stroke-dasharray: none; stroke-dashoffset: 0; stroke-opacity: 1; color-rendering: auto; image-rendering: auto; shape-rendering: auto; text-rendering: auto; enable-background: accumulate" d="m 27.238281,1017.4199 a 0.53338902,0.53338902 0 0 0 -0.498047,0.7344 l 2.357422,5.9883 a 0.53338902,0.53338902 0 0 0 0.002,0.01 l 3.50586,8.5879 a 0.53351303,0.53351303 0 1 0 0.988281,-0.4023 l -3.505859,-8.586 -2.355469,-5.9843 a 0.53338902,0.53338902 0 0 0 -0.494141,-0.3438 z" fill="url(#SvgjsLinearGradient1074)" stroke="none"/><path style="color: ; font-style: normal; font-variant: normal; font-weight: normal; font-stretch: normal; font-size: medium; line-height: normal; font-family: sans-serif; text-indent: 0; text-align: start; text-decoration: none; text-decoration-line: none; text-decoration-style: solid; text-decoration-color: ; letter-spacing: normal; word-spacing: normal; text-transform: none; direction: ltr; block-progression: tb; writing-mode: lr-tb; baseline-shift: baseline; text-anchor: start; white-space: normal; clip-rule: nonzero; display: inline; overflow: visible; visibility: visible; opacity: 1; isolation: auto; mix-blend-mode: normal; color-interpolation: sRGB; color-interpolation-filters: linearRGB; solid-color: ; solid-opacity: 1; fill-opacity: 1; fill-rule: evenodd; stroke-width: 1.06667137; stroke-linecap: round; stroke-linejoin: round; stroke-miterlimit: 4; stroke-dasharray: none; stroke-dashoffset: 0; stroke-opacity: 1; color-rendering: auto; image-rendering: auto; shape-rendering: auto; text-rendering: auto; enable-background: accumulate" d="m 30.71875,1018.3301 a 0.53338902,0.53338902 0 0 0 -0.189453,0.047 l -8.464844,3.6894 a 0.53338902,0.53338902 0 0 0 -0.0293,0.016 l -7.074218,3.6289 a 0.53338902,0.53338902 0 1 0 0.486328,0.9493 l 7.058593,-3.6211 8.449219,-3.6836 a 0.53338902,0.53338902 0 0 0 -0.236328,-1.0254 z" fill="url(#SvgjsLinearGradient1074)" stroke="none"/><path style="color: ; font-style: normal; font-variant: normal; font-weight: normal; font-stretch: normal; font-size: medium; line-height: normal; font-family: sans-serif; text-indent: 0; text-align: start; text-decoration: none; text-decoration-line: none; text-decoration-style: solid; text-decoration-color: ; letter-spacing: normal; word-spacing: normal; text-transform: none; direction: ltr; block-progression: tb; writing-mode: lr-tb; baseline-shift: baseline; text-anchor: start; white-space: normal; clip-rule: nonzero; display: inline; overflow: visible; visibility: visible; opacity: 1; isolation: auto; mix-blend-mode: normal; color-interpolation: sRGB; color-interpolation-filters: linearRGB; solid-color: ; solid-opacity: 1; fill-opacity: 1; fill-rule: evenodd; stroke-width: 1.06667137; stroke-linecap: round; stroke-linejoin: round; stroke-miterlimit: 4; stroke-dasharray: none; stroke-dashoffset: 0; stroke-opacity: 1; color-rendering: auto; image-rendering: auto; shape-rendering: auto; text-rendering: auto; enable-background: accumulate" d="m 33.199219,1020.9316 a 0.53338902,0.53338902 0 0 0 -0.189453,0.047 l -7.679688,3.3262 a 0.53338902,0.53338902 0 0 0 -0.01953,0.01 l -10.035156,4.8398 a 0.53338902,0.53338902 0 1 0 0.46289,0.961 l 10.027344,-4.834 7.667969,-3.3223 a 0.53338902,0.53338902 0 0 0 -0.234375,-1.0254 z" fill="url(#SvgjsLinearGradient1074)" stroke="none"/><path style="color: ; font-style: normal; font-variant: normal; font-weight: normal; font-stretch: normal; font-size: medium; line-height: normal; font-family: sans-serif; text-indent: 0; text-align: start; text-decoration: none; text-decoration-line: none; text-decoration-style: solid; text-decoration-color: ; letter-spacing: normal; word-spacing: normal; text-transform: none; direction: ltr; block-progression: tb; writing-mode: lr-tb; baseline-shift: baseline; text-anchor: start; white-space: normal; clip-rule: nonzero; display: inline; overflow: visible; visibility: visible; opacity: 1; isolation: auto; mix-blend-mode: normal; color-interpolation: sRGB; color-interpolation-filters: linearRGB; solid-color: ; solid-opacity: 1; fill-opacity: 1; fill-rule: evenodd; stroke-width: 1.06667137; stroke-linecap: round; stroke-linejoin: round; stroke-miterlimit: 4; stroke-dasharray: none; stroke-dashoffset: 0; stroke-opacity: 1; color-rendering: auto; image-rendering: auto; shape-rendering: auto; text-rendering: auto; enable-background: accumulate" d="m 34.099609,1024.5 a 0.53338902,0.53338902 0 0 0 -0.189453,0.049 l -7.013672,3.1446 a 0.53338902,0.53338902 0 0 0 -0.0059,0 l -10.458984,4.8379 a 0.53348516,0.53348516 0 1 0 0.447265,0.9687 l 10.457032,-4.8379 7.009765,-3.1445 A 0.53338902,0.53338902 0 0 0 34.099609,1024.5 Z" fill="url(#SvgjsLinearGradient1074)" stroke="none"/><path style="color: ; font-style: normal; font-variant: normal; font-weight: normal; font-stretch: normal; font-size: medium; line-height: normal; font-family: sans-serif; text-indent: 0; text-align: start; text-decoration: none; text-decoration-line: none; text-decoration-style: solid; text-decoration-color: ; letter-spacing: normal; word-spacing: normal; text-transform: none; direction: ltr; block-progression: tb; writing-mode: lr-tb; baseline-shift: baseline; text-anchor: start; white-space: normal; clip-rule: nonzero; display: inline; overflow: visible; visibility: visible; opacity: 1; isolation: auto; mix-blend-mode: normal; color-interpolation: sRGB; color-interpolation-filters: linearRGB; solid-color: ; solid-opacity: 1; fill-opacity: 1; fill-rule: evenodd; stroke-width: 1.06667137; stroke-linecap: round; stroke-linejoin: round; stroke-miterlimit: 4; stroke-dasharray: none; stroke-dashoffset: 0; stroke-opacity: 1; color-rendering: auto; image-rendering: auto; shape-rendering: auto; text-rendering: auto; enable-background: accumulate" d="m 34.478516,1028.4922 a 0.53338902,0.53338902 0 0 0 -0.191407,0.043 l -5.986328,2.4785 a 0.53338902,0.53338902 0 0 0 -0.03711,0.017 l -8.583984,4.3555 a 0.53338902,0.53338902 0 1 0 0.482421,0.9512 l 8.566407,-4.3457 5.966796,-2.4727 a 0.53338902,0.53338902 0 0 0 -0.216796,-1.0273 z" fill="url(#SvgjsLinearGradient1074)" stroke="none"/></g></g>        </g></svg>
